<svg xmlns="http://www.w3.org/2000/svg" xmlns:xlink="http://www.w3.org/1999/xlink" width="500" zoomAndPan="magnify" viewBox="0 0 375 374.999991" height="500" preserveAspectRatio="xMidYMid meet" version="1.0"><defs><clipPath id="ef42d4f3b8"><path d="M 20.546875 9 L 354.296875 9 L 354.296875 365.941406 L 20.546875 365.941406 Z M 20.546875 9 " clip-rule="nonzero"/></clipPath></defs><g clip-path="url(#ef42d4f3b8)"><path fill="#000000" d="M 336.378906 213.359375 C 333.535156 209.898438 330.378906 206.667969 326.84375 203.667969 C 324.457031 200.976562 321.921875 198.363281 319.152344 195.976562 C 318.382812 195.054688 317.539062 194.132812 316.691406 193.207031 C 318.308594 191.671875 320 190.132812 321.382812 188.515625 C 334.378906 173.597656 340.992188 155.523438 340.992188 134.832031 C 340.992188 91.609375 308.386719 64.765625 275.472656 34.3125 C 257.863281 18.082031 232.945312 9.777344 201.496094 9.777344 L 20.546875 9.777344 L 20.546875 326.800781 L 58.996094 365.257812 L 227.027344 365.257812 C 234.253906 365.257812 247.867188 363.949219 268.628906 361.257812 C 285.777344 359.027344 298.621094 355.335938 307.925781 349.953125 C 322.230469 341.722656 333.609375 330.417969 341.839844 316.265625 C 350.066406 302.113281 354.296875 286.039062 354.296875 268.503906 C 354.296875 246.660156 348.222656 228.203125 336.378906 213.359375 Z M 336.378906 213.359375 " fill-opacity="1" fill-rule="nonzero"/></g><path fill="#ffffff" d="M 35.925781 25.160156 L 201.496094 25.160156 C 229.101562 25.160156 250.25 32.003906 265.015625 45.695312 C 279.78125 59.382812 287.160156 76.304688 287.160156 96.453125 C 287.160156 113.375 281.855469 127.910156 271.320312 139.984375 C 264.324219 148.0625 254.019531 154.445312 240.484375 159.136719 C 261.015625 164.058594 276.164062 172.597656 285.855469 184.59375 C 295.542969 196.667969 300.390625 211.742188 300.390625 229.972656 C 300.390625 244.816406 296.929688 258.121094 290.007812 269.964844 C 283.085938 281.808594 273.703125 291.191406 261.707031 298.113281 C 254.324219 302.421875 243.097656 305.5 228.101562 307.496094 C 208.183594 310.113281 194.957031 311.421875 188.5 311.421875 L 35.925781 311.421875 Z M 125.132812 137.449219 L 163.582031 137.449219 C 177.347656 137.449219 186.960938 135.0625 192.34375 130.296875 C 197.726562 125.527344 200.417969 118.683594 200.417969 109.683594 C 200.417969 101.378906 197.726562 94.839844 192.34375 90.148438 C 186.960938 85.457031 177.5 83.148438 164.121094 83.148438 L 125.132812 83.148438 Z M 125.132812 249.890625 L 170.195312 249.890625 C 185.421875 249.890625 196.1875 247.199219 202.417969 241.816406 C 208.644531 236.433594 211.800781 229.125 211.800781 220.050781 C 211.800781 211.589844 208.722656 204.820312 202.492188 199.667969 C 196.34375 194.515625 185.5 191.976562 169.964844 191.976562 L 125.132812 191.976562 Z M 125.132812 249.890625 " fill-opacity="1" fill-rule="nonzero"/></svg>